<svg xmlns="http://www.w3.org/2000/svg" id="Layer_1" data-name="Layer 1" width="361" height="96.48" viewBox="0 0 361 96.48"><defs><style>.cls-1{fill:#bdbaba;}.cls-2{fill:#515d75;}.cls-3{fill:#c54440;}</style></defs><title>OID-Logo-361x97</title><path class="cls-1" d="M101.77,74.42h0V35.85h0V24.52a.21.21,0,0,1,0,.06,17,17,0,0,1-27.31-.07V96.05h27.35Z" transform="translate(0 -0.26)"></path><path class="cls-1" d="M124.1,14.22H105.8V35.85h9.06c12.63,0,20.93,5.38,20.93,18.59,0,12.27-8.54,20-20,20h-10V96.05h17.36c17.19,0,40.21-14.61,40.21-41.5C163.37,29.54,144.2,14.22,124.1,14.22Z" transform="translate(0 -0.26)"></path><path class="cls-1" d="M175.24,75.77h5.56c6.22,0,9,3.14,9,9.82,0,6.16-2.51,10.36-9,10.36h-5.56Zm2.88,17.68h2.56c4.35,0,6.16-2.33,6.16-7.55,0-5.7-2.3-7.63-6.27-7.63h-2.45Z" transform="translate(0 -0.26)"></path><path class="cls-1" d="M195.87,96V75.77h11.06v2.5h-8.18v6.19h7.14V87h-7.14v6.48h8.55V96Z" transform="translate(0 -0.26)"></path><path class="cls-1" d="M225.67,81.61c0,4-2.22,6.6-7.23,6.6h-2.68V96h-2.88V75.77H219C223,75.77,225.67,77.44,225.67,81.61Zm-9.91-3.31v7.43h2.62c3.23,0,4.3-1.41,4.3-3.74,0-2.62-1.45-3.69-4.27-3.69Z" transform="translate(0 -0.26)"></path><path class="cls-1" d="M236.12,75.77,242.57,96h-3.08l-1.7-5.52H230.1L228.38,96h-3l6.39-20.18Zm-5.24,12.15H237l-1.73-5.62c-.35-1.23-1.13-3.74-1.3-4.52h-.11c-.15.75-.93,3.31-1.24,4.44Z" transform="translate(0 -0.26)"></path><path class="cls-1" d="M252.42,75.77c4.27,0,6.8,1.67,6.8,5.76,0,3.37-2.07,5.21-4.46,5.53v.11a5.73,5.73,0,0,1,2.5,2.71L260.8,96h-3.48l-3.57-6.48A2.83,2.83,0,0,0,251,87.83H249.8V96h-2.88V75.77Zm-2.62,9.64h2.33c2.66,0,4.12-1.09,4.12-3.62s-1.49-3.52-4.23-3.52H249.8Z" transform="translate(0 -0.26)"></path><path class="cls-1" d="M269.13,78.27h-5.3v-2.5h13.48v2.5H272V96h-2.91Z" transform="translate(0 -0.26)"></path><path class="cls-1" d="M292.13,89.13h.14l5.22-13.36H302V96h-2.82V79.19H299c-1.15,2.8-4.38,11.21-5.53,14h-2.79l-5.5-14h-.17V96h-2.74V75.77h4.61Z" transform="translate(0 -0.26)"></path><path class="cls-1" d="M308.49,96V75.77h11.06v2.5h-8.18v6.19h7.14V87h-7.14v6.48h8.55V96Z" transform="translate(0 -0.26)"></path><path class="cls-1" d="M328.15,79.31c.08.89.14,4.32.14,5.85V96H325.5V75.77h3.83l6,11.37c.43.87,2.16,4.15,2.47,5H338c-.09-1.24-.09-5.12-.09-6.07V75.77h2.74V96H336.9l-6.16-11.6c-.43-.86-2-4.06-2.42-5Z" transform="translate(0 -0.26)"></path><path class="cls-1" d="M351,78.27h-5.3v-2.5h13.48v2.5h-5.27V96H351Z" transform="translate(0 -0.26)"></path><path class="cls-2" d="M184.33,39.51c-6.1,0-9.87-3.41-9.87-12.64s4.16-13,10.19-13,9.94,3.45,9.94,12.68S190.37,39.51,184.33,39.51Zm.29-3.76c3.3,0,5.36-2.17,5.36-8.92s-2.17-9.16-5.61-9.16c-3.2,0-5.36,2.1-5.36,8.88S181.17,35.75,184.62,35.75Z" transform="translate(0 -0.26)"></path><path class="cls-2" d="M203.53,39.15h-4.44V14.27h4.44Zm8.34-24.88H217l-8.17,12.25,9,12.63h-5.58L204,26.69v-.14Z" transform="translate(0 -0.26)"></path><path class="cls-2" d="M225.49,14.27V35.43h9.77v3.72H221.05V14.27Z" transform="translate(0 -0.26)"></path><path class="cls-2" d="M251.44,14.27l7.74,24.88h-4.65l-1.89-6.32H243.7l-1.89,6.32h-4.47l7.71-24.88ZM244.8,29.11h6.74L250,23.78c-.67-2.41-1.42-4.9-1.7-6.46h-.15c-.31,1.49-1.06,4.15-1.7,6.35Z" transform="translate(0 -0.26)"></path><path class="cls-2" d="M281.57,14.27V39.15h-4.44V28.54H266.94V39.15H262.5V14.27h4.44V24.81h10.19V14.27Z" transform="translate(0 -0.26)"></path><path class="cls-2" d="M296,39.51c-6.11,0-9.87-3.41-9.87-12.64s4.15-13,10.19-13,9.94,3.45,9.94,12.68S302,39.51,296,39.51Zm.28-3.76c3.3,0,5.36-2.17,5.36-8.92s-2.16-9.16-5.61-9.16c-3.19,0-5.36,2.1-5.36,8.88S292.81,35.75,296.25,35.75Z" transform="translate(0 -0.26)"></path><path class="cls-2" d="M323.29,29.32h.14l5.61-15h6.75V39.15h-4.23V19.52h-.18c-.78,1.85-5.46,14.59-6.24,16.44h-3.91l-6.18-16.44h-.21V39.15h-4.08V14.27h6.88Z" transform="translate(0 -0.26)"></path><path class="cls-2" d="M353.26,14.27,361,39.15h-4.65l-1.88-6.32h-9l-1.88,6.32h-4.48l7.71-24.88Zm-6.64,14.84h6.75l-1.57-5.33c-.67-2.41-1.42-4.9-1.7-6.46H350c-.32,1.49-1.07,4.15-1.71,6.35Z" transform="translate(0 -0.26)"></path><path class="cls-3" d="M176,45.22h4.46v25H176Z" transform="translate(0 -0.26)"></path><path class="cls-3" d="M190.18,50.75c.18,1.75.25,4.89.25,7.92V70.23h-4.24v-25h5.56l6.35,12.13c.86,1.68,2.64,5.14,3.28,6.89h.18c-.18-2.46-.18-6.64-.18-8.49V45.22h4.21v25h-5.45L193.5,57.64c-.86-1.72-2.43-5-3.14-6.89Z" transform="translate(0 -0.26)"></path><path class="cls-3" d="M222.08,63.67c0-4.61-11.67-3.79-11.67-11.67,0-4,3.5-7.14,8.42-7.14A10,10,0,0,1,226,47.5l-2.75,3.36a6.45,6.45,0,0,0-4.75-2.11c-2.24,0-3.49,1.25-3.49,2.89,0,4.71,11.63,3.86,11.63,11.74,0,3.75-3.07,7.21-9,7.21a12.07,12.07,0,0,1-8.35-2.93L211.8,64a9.22,9.22,0,0,0,6.32,2.78C220.76,66.77,222.08,65.38,222.08,63.67Z" transform="translate(0 -0.26)"></path><path class="cls-3" d="M244.71,61.42V45.22h4.46V60.81c0,7-4.25,9.78-9.78,9.78-6.17,0-9-3.64-9-8.89V45.22h4.46V60.88c0,3.93,1.68,5.89,5.1,5.89C243,66.77,244.71,65.27,244.71,61.42Z" transform="translate(0 -0.26)"></path><path class="cls-3" d="M262.07,45.22c5.42,0,8.56,2.07,8.56,7.24,0,4.25-2.46,6.43-5.42,6.89v.14c1.21.57,2,1.46,3.21,3.5l4.1,7.24H267.2l-4.28-8.1a2.93,2.93,0,0,0-2.89-1.6h-1v9.7h-4.42v-25Zm-3,11.67h2.5c3.1,0,4.53-1.29,4.53-4S264.46,49,261.53,49h-2.46Z" transform="translate(0 -0.26)"></path><path class="cls-3" d="M288.87,45.22l7.78,25H292l-1.9-6.35h-9l-1.89,6.35h-4.49l7.74-25ZM282.2,60.13H289l-1.57-5.35c-.68-2.42-1.43-4.92-1.71-6.49h-.15c-.32,1.5-1.07,4.17-1.71,6.39Z" transform="translate(0 -0.26)"></path><path class="cls-3" d="M304,50.75c.18,1.75.25,4.89.25,7.92V70.23H300v-25h5.56l6.35,12.13c.86,1.68,2.64,5.14,3.29,6.89h.17c-.17-2.46-.17-6.64-.17-8.49V45.22h4.21v25H314l-6.64-12.59c-.85-1.72-2.42-5-3.14-6.89Z" transform="translate(0 -0.26)"></path><path class="cls-3" d="M334.67,44.9c4.5,0,6.64,1.86,7.35,2.57l-2.89,3.28a6,6,0,0,0-4.81-2c-3.75,0-5.82,2.78-5.82,8.92,0,5.78,2.07,9.06,6.21,9.06a6,6,0,0,0,4.64-1.89L341.81,68c-1.11,1.22-3.5,2.61-7.53,2.61-7.39,0-10.35-5.07-10.35-12.63C323.93,50,327.61,44.9,334.67,44.9Z" transform="translate(0 -0.26)"></path><path class="cls-3" d="M345.56,70.23v-25h14.23V49H350v6.7h8.45v3.75H350v7.06h10.24v3.75Z" transform="translate(0 -0.26)"></path><path class="cls-2" d="M74.2,29.55h0l-4.73-5a41.26,41.26,0,1,0,4.74,5ZM41.57,70.14a14.91,14.91,0,1,1,14.85-15A14.91,14.91,0,0,1,41.57,70.14Z" transform="translate(0 -0.26)"></path><path class="cls-3" d="M88.09,31.4a17,17,0,0,1-13.67-6.89V96.05h27.35V24.51A17,17,0,0,1,88.09,31.4Z" transform="translate(0 -0.26)"></path><circle class="cls-3" cx="88.09" cy="13.64" r="13.64"></circle></svg>